<svg class="diagram-root" style="background: #f5f6f6" xmlns="http://www.w3.org/2000/svg" xmlns:xlink="http://www.w3.org/1999/xlink"><style>.diagram-root { font-family: "Helvetica Neue", sans-serif; font-size: 12px; } .t { overflow: visible; } .t-bg { y: 40; fill: #fff;   } .th { fill: #005aa0;   } .tht { fill: #fff; font-size: 14px;  } .tf { fill: #323c46; overflow: visible; } .tf.pk { fill: #005aa0; font-weight: bold; } .tf.fk { font-weight: bold; } .ty { fill: #adb1b5; font-weight: normal; text-anchor: end; } .r { fill: transparent; stroke: #c3c3c3; stroke-width: 1; } .l { stroke: 1; } .i { fill: #c2c7ce; stroke: #c2c7ce; } .i.ix { fill: #afb3b6; stroke: #000; } .fa { fill: transparent; overflow: visible; } .fa .bg.hover { fill: #f7f7f7; } .c { cy: 12; r: 4; stroke: #d2d2dc; fill: #d2d2dc; } .hr { fill: transparent; stroke: #323c46; stroke-opacity: 0.035; stroke-width: 13; } .dc { stroke: #fa5a3c; fill: #fa5a3c; } .x { stroke: white; stroke-width: 1; } .hl .th { fill: #1b9bff; } .hl .tht {  } .fhl .bg { fill: #e7f4ff; } .fhls .bg {  } .r.hl { stroke: #1b9bff; } .dim { opacity: 0.25; }</style><g class="drawing-wrapper" transform="translate(-39, 4) scale(1,1)"><g class="rs"><path d="M 607 261 m -1, 0 a 1,1 0 1,0 2,0 a 1,1 0 1,0 -2,0 M 607 261 m -0.5, 0 a 0.5,0.5 0 1,0 1,0 a 0.5,0.5 0 1,0 -1,0  M607 261 L607 261 619 261 M613 267 L613 267 613 255 M619 261 Q 649 261, 679 327.5 T 739 394 M 751 394 m -1, 0 a 1,1 0 1,0 2,0 a 1,1 0 1,0 -2,0 M 751 394 m -0.5, 0 a 0.5,0.5 0 1,0 1,0 a 0.5,0.5 0 1,0 -1,0  M751 394 L751 394 739 394 M745 400 L745 400 745 388" id="h2857031130" class="r"></path><path d="M 230 204 m -1, 0 a 1,1 0 1,0 2,0 a 1,1 0 1,0 -2,0 M 230 204 m -0.5, 0 a 0.5,0.5 0 1,0 1,0 a 0.5,0.5 0 1,0 -1,0  M230 204 L230 204 242 204 M236 210 L236 210 236 198 M242 204 Q 302.75 204, 363.5 143.5 T 485 83 M 497 83 m -1, 0 a 1,1 0 1,0 2,0 a 1,1 0 1,0 -2,0 M 497 83 m -0.5, 0 a 0.5,0.5 0 1,0 1,0 a 0.5,0.5 0 1,0 -1,0  M497 83 L497 83 485 83 M491 89 L491 89 491 77" id="h271396908" class="r"></path><path d="M 230 229 m -1, 0 a 1,1 0 1,0 2,0 a 1,1 0 1,0 -2,0 M 230 229 m -0.5, 0 a 0.5,0.5 0 1,0 1,0 a 0.5,0.5 0 1,0 -1,0  M230 229 L230 229 242 229 M236 235 L236 235 236 223 M242 229 Q 301.75 229, 361.5 232.5 T 481 236 M 493 236 m -1, 0 a 1,1 0 1,0 2,0 a 1,1 0 1,0 -2,0 M 493 236 m -0.5, 0 a 0.5,0.5 0 1,0 1,0 a 0.5,0.5 0 1,0 -1,0  M493 236 L493 236 481 236 M487 242 L487 242 487 230" id="h1599699770" class="r"></path><path d="M 736 245 m -1, 0 a 1,1 0 1,0 2,0 a 1,1 0 1,0 -2,0 M 736 245 m -0.5, 0 a 0.5,0.5 0 1,0 1,0 a 0.5,0.5 0 1,0 -1,0  M736 245 L736 245 724 245 M730 251 L730 251 730 239 M724 245 Q 697.75 245, 671.5 240.5 T 619 236 M 607 236 m -1, 0 a 1,1 0 1,0 2,0 a 1,1 0 1,0 -2,0 M 607 236 m -0.5, 0 a 0.5,0.5 0 1,0 1,0 a 0.5,0.5 0 1,0 -1,0  M607 236 L607 236 619 236 M613 242 L613 242 613 230" id="h2043714667" class="r"></path><path d="M 724 86 m -1, 0 a 1,1 0 1,0 2,0 a 1,1 0 1,0 -2,0 M 724 86 m -0.5, 0 a 0.5,0.5 0 1,0 1,0 a 0.5,0.5 0 1,0 -1,0  M724 86 L724 86 712 86 M718 92 L718 92 718 80 M712 86 Q 688.5 86, 665 84.5 T 618 83 M 606 83 m -1, 0 a 1,1 0 1,0 2,0 a 1,1 0 1,0 -2,0 M 606 83 m -0.5, 0 a 0.5,0.5 0 1,0 1,0 a 0.5,0.5 0 1,0 -1,0  M606 83 L606 83 618 83 M612 89 L612 89 612 77" id="h2166958451" class="r"></path><path d="M 724 111 m -1, 0 a 1,1 0 1,0 2,0 a 1,1 0 1,0 -2,0 M 724 111 m -0.5, 0 a 0.5,0.5 0 1,0 1,0 a 0.5,0.5 0 1,0 -1,0  M724 111 L724 111 712 111 M718 117 L718 117 718 105 M712 111 Q 688.75 111, 665.5 173.5 T 619 236 M 607 236 m -1, 0 a 1,1 0 1,0 2,0 a 1,1 0 1,0 -2,0 M 607 236 m -0.5, 0 a 0.5,0.5 0 1,0 1,0 a 0.5,0.5 0 1,0 -1,0  M607 236 L607 236 619 236 M613 242 L613 242 613 230" id="h1393869420" class="r"></path></g><g class="hrs"></g><g class="ts"><svg width="169" height="100" x="61" y="147" id="h3468021851" class="t"><rect height="40" width="169" class="th"></rect><text x="13" y="25" class="tht">Department_employee</text><rect height="60" width="169" class="t-bg" y="40"></rect><text x="13" y="61" class="tf fk">dept_no</text><text x="13" y="86" class="tf fk">emp_no</text></svg><svg width="114" height="225" x="493" y="179" id="h2421874875" class="t"><rect height="40" width="114" class="th"></rect><text x="13" y="25" class="tht">Employee</text><rect height="185" width="114" class="t-bg" y="40"></rect><text x="13" y="61" class="tf pk">emp_no</text><path d="M7,14A2,2 0 0,1 5,12A2,2 0 0,1 7,10A2,2 0 0,1 9,12A2,2 0 0,1 7,14M12.65,10C11.83,7.67 9.61,6 7, 6A6, 6 0 0, 0 1, 12A6, 6 0 0, 0 7, 18C9.61, 18 11.83, 16.33 12.65, 14H17V18H21V14H23V10H12.65Z" class="i pk" transform="translate(86, 48) scale(0.65)"></path><text x="13" y="86" class="tf fk">emp_title_id</text><text x="13" y="111" class="tf">birth_date</text><text x="13" y="136" class="tf">first_name</text><text x="13" y="161" class="tf">last_name</text><text x="13" y="186" class="tf">sex</text><text x="13" y="211" class="tf">hire_date</text></svg><svg width="109" height="100" x="497" y="26" id="h2876837712" class="t"><rect height="40" width="109" class="th"></rect><text x="13" y="25" class="tht">Department</text><rect height="60" width="109" class="t-bg" y="40"></rect><text x="13" y="61" class="tf pk">dept_no</text><path d="M7,14A2,2 0 0,1 5,12A2,2 0 0,1 7,10A2,2 0 0,1 9,12A2,2 0 0,1 7,14M12.65,10C11.83,7.67 9.61,6 7, 6A6, 6 0 0, 0 1, 12A6, 6 0 0, 0 7, 18C9.61, 18 11.83, 16.33 12.65, 14H17V18H21V14H23V10H12.65Z" class="i pk" transform="translate(81, 48) scale(0.65)"></path><text x="13" y="86" class="tf">dept_name</text></svg><svg width="127" height="100" x="724" y="29" id="h2853416718" class="t"><rect height="40" width="127" class="th"></rect><text x="13" y="25" class="tht">Dept_managers</text><rect height="60" width="127" class="t-bg" y="40"></rect><text x="13" y="61" class="tf fk">dept_no</text><text x="13" y="86" class="tf fk">emp_no</text></svg><svg width="97" height="100" x="751" y="337" id="h1984824179" class="t"><rect height="40" width="97" class="th"></rect><text x="13" y="25" class="tht">Title</text><rect height="60" width="97" class="t-bg" y="40"></rect><text x="13" y="61" class="tf pk">title_id</text><path d="M7,14A2,2 0 0,1 5,12A2,2 0 0,1 7,10A2,2 0 0,1 9,12A2,2 0 0,1 7,14M12.65,10C11.83,7.67 9.61,6 7, 6A6, 6 0 0, 0 1, 12A6, 6 0 0, 0 7, 18C9.61, 18 11.83, 16.33 12.65, 14H17V18H21V14H23V10H12.65Z" class="i pk" transform="translate(69, 48) scale(0.65)"></path><text x="13" y="86" class="tf">title</text></svg><svg width="92" height="100" x="736" y="188" id="h1151978425" class="t"><rect height="40" width="92" class="th"></rect><text x="13" y="25" class="tht">Salary</text><rect height="60" width="92" class="t-bg" y="40"></rect><text x="13" y="61" class="tf fk">emp_no</text><text x="13" y="86" class="tf">salary</text></svg></g></g><text class="qdbd-link" x="10" y="20">www.quickdatabasediagrams.com</text></svg>